<?xml version="1.0" encoding="utf-8"?>
<!DOCTYPE svg PUBLIC "-//W3C//DTD SVG 20010904//EN" "http://www.w3.org/TR/2001/REC-SVG-20010904/DTD/svg10.dtd">
<svg version="1.0" xmlns="http://www.w3.org/2000/svg" width="2898px" height="981px" viewBox="0 0 2898 981" preserveAspectRatio="xMidYMid meet">
 <g fill="#1f1a17">
  <path d="M1308.2 914.4 c-6.7 -1.8 -8.4 -2.7 -13.4 -7.2 -6.6 -6 -11.8 -16.3 -11.8 -23.4 0 -3.5 0.5 -3.7 9.9 -4 l7.3 -0.3 1.4 5.4 c2.7 10.1 8.5 15.1 17.9 15.1 11.3 0 18.8 -6.9 22.9 -21 2 -6.8 3.5 -18 2.5 -18 -0.4 0 -2.1 1.1 -3.7 2.5 -1.7 1.4 -5.7 3.8 -8.9 5.2 -4.9 2.3 -7.2 2.8 -14.3 2.8 -7.2 0 -9.4 -0.5 -14.5 -2.8 -16.4 -7.6 -25.6 -26.1 -22.7 -45.7 4.3 -28.7 31.5 -43.6 57.7 -31.6 10.7 4.9 18.9 15.1 23.2 29.1 2.6 8.7 2.7 47.8 0 57.5 -2.4 8.8 -7.7 19.6 -12 24.5 -9.5 10.9 -26.9 15.9 -41.5 11.9z m26 -64 c2.4 -1.6 5.4 -5 6.8 -7.4 2.2 -3.9 2.5 -5.7 2.5 -14 0 -8.3 -0.3 -10.2 -2.6 -14.5 -6.4 -12.6 -22.4 -15.4 -32.9 -5.9 -10.2 9.2 -11.3 29.1 -2.2 38.8 4.5 4.8 9.8 6.7 17.4 6.4 5.6 -0.3 7.5 -0.9 11 -3.4z"/>
  <path d="M1511.3 915 c-15.4 -3.1 -28.2 -16.7 -30.7 -32.6 l-0.6 -4.1 5.8 -0.7 c3.1 -0.4 7.4 -0.9 9.5 -1.3 3 -0.4 3.7 -0.2 3.7 1 0 3 3.1 11.2 5.7 14.9 8.4 12.3 30.3 9.7 37.2 -4.5 2.3 -4.8 2.9 -15.5 1 -20.4 -1.2 -3.3 -6.4 -8.9 -9.9 -10.8 -3.8 -2 -10.9 -2.7 -16.2 -1.7 -6.1 1.2 -7.2 0.1 -6.3 -6.5 1.4 -10.7 0.8 -10 8.6 -10.5 13.1 -1 20.4 -7.9 19.7 -18.9 -0.7 -9.7 -7.6 -15.8 -18.1 -15.9 -9.2 0 -16.4 5.9 -18.8 15.5 -0.7 2.8 -1.6 5.3 -1.9 5.8 -0.9 1.1 -16.3 -1.3 -17.2 -2.6 -2.1 -3.2 4.1 -17.6 10.2 -23.7 11.7 -11.7 31.5 -14.1 47.3 -5.7 19.3 10.2 23.6 34.9 8.6 48.8 l-4.1 3.8 4 2 c4.8 2.4 9.8 8 12.6 14 1.7 3.7 2.1 6.5 2.1 14.6 0 8.8 -0.3 10.7 -2.7 15.8 -8.4 17.9 -28.9 27.7 -49.5 23.7z"/>
  <path d="M1224.2 912.8 c-0.9 -0.9 -1.2 -12.6 -1.2 -46.5 0 -24.9 -0.2 -45.3 -0.6 -45.3 -0.3 0 -3.1 1.7 -6.2 3.9 -3.1 2.1 -9 5.5 -13 7.5 -9.4 4.7 -10.2 4.2 -10.2 -6.4 0 -7.7 0 -7.8 3.1 -9 9.6 -4 24.3 -16.3 30 -25.1 3.1 -4.8 3.2 -4.9 8.3 -4.9 2.9 0 5.7 0.5 6.4 1.2 1.7 1.7 1.7 122.9 0 124.6 -0.7 0.7 -4.1 1.2 -8.3 1.2 -4.2 0 -7.6 -0.5 -8.3 -1.2z"/>
  <path d="M1429.2 912.8 c-0.8 -0.8 -1.2 -5.5 -1.2 -14.5 l0 -13.3 -25.3 0 c-18.3 0 -25.6 -0.3 -26.5 -1.2 -0.7 -0.7 -1.2 -4.1 -1.2 -8 l0 -6.9 28.6 -40.4 28.6 -40.5 6.2 0 c3.5 0 6.7 0.5 7.4 1.2 0.9 0.9 1.2 11 1.2 39.5 l0 38.3 7.3 0 c4.3 0 7.8 0.5 8.5 1.2 1.6 1.6 1.6 14 0 15.6 -0.7 0.7 -4.2 1.2 -8.5 1.2 l-7.3 0 0 13.3 c0 9 -0.4 13.7 -1.2 14.5 -0.7 0.7 -4.1 1.2 -8.3 1.2 -4.2 0 -7.6 -0.5 -8.3 -1.2z m-1.2 -68.9 c0 -22.6 0 -23.1 -1.8 -20.8 -2.2 2.8 -28.5 40.8 -29.6 42.7 -0.6 0.9 2.8 1.2 15.3 1.2 l16.1 0 0 -23.1z"/>
  <path d="M1223.5 709.5 c-13.5 -2.4 -24.8 -10.3 -30 -20.9 -5.1 -10.4 -5.5 -15.7 -5.3 -62.8 l0.3 -43.3 8.6 -0.3 c6.2 -0.2 8.9 0.1 9.7 1.1 0.8 0.9 1.2 15.2 1.4 45.7 0.3 42.6 0.4 44.7 2.4 49 4.6 10.1 14.4 14.6 29.5 13.8 11 -0.7 18.5 -3.8 21.8 -9.2 4.9 -7.9 5.3 -11.3 6 -57.1 l0.6 -43 8.3 -0.3 c5.6 -0.2 8.9 0.1 9.9 1 1.3 1 1.4 6.8 1 44.3 -0.5 43.5 -0.8 47.4 -4.7 57.8 -7.2 19.3 -31.7 29.3 -59.5 24.2z"/>
  <path d="M1895.8 710 c-13.2 -2.3 -24.5 -8.1 -30.6 -15.7 -6.2 -7.9 -10.1 -18.1 -10.2 -26.5 0 -3.6 0.1 -3.8 3.4 -3.8 1.8 0 6 -0.3 9.3 -0.6 l6 -0.7 0.7 5 c2.2 16.6 16.2 26.3 36.5 25 10.3 -0.6 16.4 -3 20.8 -8.1 9.3 -10.5 5 -22 -9.9 -27 -2.6 -0.8 -10.1 -2.9 -16.6 -4.5 -6.5 -1.7 -15.1 -4.2 -19.2 -5.5 -17.1 -5.8 -26.2 -16.7 -26.2 -31.5 0 -22.7 20.2 -37.5 48.7 -35.7 25 1.5 41.4 14.7 43.2 34.7 l0.6 5.9 -3.5 0 c-1.9 0 -6.2 0.3 -9.4 0.6 l-6 0.6 -1.2 -6.1 c-1.5 -7.1 -5.2 -12 -11.6 -15.4 -3.5 -1.9 -5.7 -2.2 -15.6 -2.2 -10.3 0 -12 0.3 -16.5 2.5 -8.6 4.3 -11.8 12.6 -7.9 20.1 2.1 4.2 8.7 7 29 12.3 20.5 5.3 26.5 7.6 32.7 12.1 16.8 12.4 18.2 35.3 3.1 51.5 -10.3 11 -30.3 16.2 -49.6 13z"/>
  <path d="M1316.2 707.8 c-1.7 -1.7 -1.8 -122.8 0 -124.6 0.8 -0.8 4.4 -1.2 9.7 -1.2 l8.6 0.1 30.5 45.7 30.5 45.7 0.3 -44.4 c0.1 -31.5 0.6 -44.8 1.4 -45.8 0.8 -1 3.3 -1.3 9.2 -1.1 l8.1 0.3 0 63 0 63 -9.2 0.3 -9.3 0.3 -30.1 -45.3 c-16.5 -24.9 -30.5 -45.4 -31 -45.6 -0.5 -0.2 -1 18.9 -1.1 45 l-0.3 45.3 -8 0.3 c-5.4 0.2 -8.4 -0.1 -9.3 -1z"/>
  <path d="M1447.2 707.8 c-1.7 -1.7 -1.7 -122.9 0 -124.6 0.7 -0.7 4.2 -1.2 8.8 -1.2 4.6 0 8.1 0.5 8.8 1.2 1.7 1.7 1.7 122.9 0 124.6 -0.7 0.7 -4.2 1.2 -8.8 1.2 -4.6 0 -8.1 -0.5 -8.8 -1.2z"/>
  <path d="M1507.1 646.9 c-18.9 -48.6 -23.9 -62.4 -23 -63.5 0.8 -1 3.7 -1.4 10.3 -1.4 l9.2 0 16.2 45.3 c8.9 24.8 17.2 48.1 18.4 51.7 2 6 2.3 6.3 3.1 4 0.5 -1.4 9.1 -24.5 19.2 -51.5 l18.2 -49 9.1 -0.3 c8.2 -0.2 9.1 -0.1 9.7 1.6 0.3 1.3 -8.1 24 -23.7 63.6 l-24.2 61.6 -9.1 0 -9.2 0 -24.2 -62.1z"/>
  <path d="M1614.5 707.8 c-0.3 -0.7 -0.4 -29.2 -0.3 -63.3 l0.3 -62 44.4 -0.3 c31.9 -0.1 44.8 0.1 45.7 0.9 1.8 1.5 1.9 14 0.2 15.7 -0.9 0.9 -10.3 1.2 -36 1.2 l-34.8 0 0 17.5 0 17.5 33.3 0.2 33.2 0.3 0 8.5 0 8.5 -33.2 0.3 -33.3 0.2 0 19 0 19 36.3 0 c26.9 0 36.6 0.3 37.5 1.2 0.7 0.7 1.2 4 1.2 7.8 0 3.8 -0.5 7.1 -1.2 7.8 -1.8 1.8 -92.7 1.7 -93.3 0z"/>
  <path d="M1733.2 707.8 c-1.7 -1.7 -1.7 -122.9 0 -124.6 1.5 -1.5 59.9 -1.7 70.1 -0.2 9.6 1.4 15.9 4.4 21.2 10.1 7 7.5 8.9 12.6 8.9 23.9 0.1 8.2 -0.2 10.2 -2.5 15 -1.4 3 -4.4 7.2 -6.5 9.4 -3.8 3.8 -14.4 9.6 -17.5 9.6 -3 0 -2.9 1.3 0.3 3.6 1.7 1.3 5.2 4.8 7.7 7.8 6.6 7.8 28.3 42.3 27.9 44.4 -0.3 1.5 -1.8 1.7 -11 2 l-10.8 0.3 -3.7 -6.1 c-10.9 -17.6 -23.6 -36.4 -27.5 -40.6 -6.6 -7.2 -10 -8.4 -24.5 -8.4 l-12.3 0 0 26.3 c0 19.1 -0.3 26.6 -1.2 27.5 -0.7 0.7 -4.3 1.2 -9.3 1.2 -5 0 -8.6 -0.5 -9.3 -1.2z m70.5 -74.5 c12.8 -6.9 13.5 -23.9 1.1 -30.5 -4.1 -2.2 -5.5 -2.3 -28 -2.6 l-23.8 -0.3 0 18.1 0 18.2 23.3 -0.4 c21.7 -0.3 23.5 -0.5 27.4 -2.5z"/>
  <path d="M1982.2 707.8 c-1.7 -1.7 -1.7 -122.9 0 -124.6 0.7 -0.7 4.2 -1.2 8.8 -1.2 4.6 0 8.1 0.5 8.8 1.2 1.7 1.7 1.7 122.9 0 124.6 -0.7 0.7 -4.2 1.2 -8.8 1.2 -4.6 0 -8.1 -0.5 -8.8 -1.2z"/>
  <path d="M2062.2 707.8 c-0.9 -0.9 -1.2 -13.5 -1.2 -54.5 l0 -53.3 -18.8 0 c-13.3 0 -19.2 -0.4 -20 -1.2 -1.6 -1.6 -1.6 -14 0 -15.6 1.7 -1.7 96.9 -1.7 98.6 0 1.6 1.6 1.6 14 0 15.6 -0.9 0.9 -6.8 1.2 -20.5 1.2 l-19.3 0 -0.2 54.3 -0.3 54.2 -8.5 0.3 c-5.8 0.2 -8.9 -0.1 -9.8 -1z"/>
  <path d="M2175.2 707.8 c-0.9 -0.9 -1.2 -8.2 -1.2 -26.8 l0 -25.5 -23.4 -35.1 c-19.9 -29.8 -23.3 -35.4 -22.3 -36.8 1 -1.4 2.9 -1.6 11.1 -1.4 l10 0.3 11.3 17.5 c6.3 9.6 14.1 21.9 17.5 27.3 3.3 5.3 6.3 9.7 6.6 9.7 0.4 0 3.2 -3.9 6.2 -8.8 3 -4.8 11 -17.1 17.8 -27.4 l12.3 -18.8 9.8 0 c8.2 0 10 0.3 10.5 1.6 0.4 1.1 -7.2 13 -23.4 36.5 l-24 34.9 0 25.8 c0 18.7 -0.3 26.1 -1.2 27 -0.7 0.7 -4.2 1.2 -8.8 1.2 -4.6 0 -8.1 -0.5 -8.8 -1.2z"/>
  <path d="M1572.6 473.9 c-29.4 -3.1 -54.7 -12.6 -69.1 -26.1 -4.1 -3.8 -7.5 -7.6 -7.5 -8.4 0 -0.8 -0.4 -1.4 -1 -1.4 -1.7 0 -9.2 -12.1 -13.7 -22 -5.7 -12.9 -8.2 -22.9 -9.3 -38 -0.5 -6.9 -1 -57.8 -1 -113.2 l0 -100.8 29.5 0 29.4 0 0.4 103.2 c0.2 91.9 0.5 103.9 1.9 108.6 0.9 2.8 1.4 5.2 1.1 5.2 -0.3 0 0 0.7 0.7 1.5 0.7 0.8 0.9 1.5 0.4 1.5 -0.4 0 -0.3 0.5 0.4 1.2 0.7 0.7 1.2 1.9 1.2 2.7 0 2.7 8.1 14 13.7 19.1 6.3 5.8 15.3 10.3 24.9 12.6 8.5 2 31.3 1.4 38.6 -0.9 12.4 -4.1 22 -10.8 28 -19.6 1.8 -2.5 3.8 -5.2 4.4 -5.9 0.7 -0.6 1.6 -2.2 1.9 -3.5 0.3 -1.2 1 -3.1 1.6 -4.2 0.5 -1.1 1.9 -5.8 3.1 -10.5 2.2 -8.5 2.2 -9 2.5 -109.7 l0.4 -101.3 29.2 0 29.2 0 -0.5 110.2 -0.5 110.3 -2.4 9.5 c-4.4 17.6 -17.4 43.6 -22.8 45.7 -0.8 0.3 -1.8 1.4 -2.1 2.4 -2.5 6.6 -29.1 22.6 -45.8 27.4 -16.1 4.7 -45.7 6.6 -66.8 4.4z"/>
  <path d="M2402.5 473.9 c-9.4 -1.1 -25.6 -5.1 -31.7 -7.7 -2.4 -1.1 -5.4 -2.4 -6.8 -3 -18.2 -8 -39 -25.4 -49.5 -41.3 -10.2 -15.4 -15.9 -28.5 -20.5 -46.7 -5.3 -20.7 -6.4 -31.4 -6.4 -57.7 0 -25.8 1.2 -37.1 6 -56.2 1.3 -5.4 2.6 -10.7 2.9 -11.7 1.7 -7.1 10.5 -28.7 12.5 -30.6 0.3 -0.3 3.1 -4.3 6.2 -9 17.8 -26.6 48.7 -46.1 81.2 -51.1 10 -1.6 43.9 -0.6 54.1 1.6 9.9 2 24.1 6.7 30.9 10.2 15.8 8 37.6 26.8 46.1 39.8 2.1 3.3 4.2 6.2 4.6 6.5 0.4 0.3 1.4 2.3 2.3 4.5 0.9 2.1 2 4.2 2.5 4.5 1.2 0.8 7.7 16.8 10 24.5 5.5 19 8.3 41.7 8.4 67 0 32.5 -5.4 64 -14.4 83 -1.6 3.4 -2.9 6.5 -2.9 6.9 0 0.4 -0.5 1.2 -1 1.9 -0.6 0.7 -3.1 4.6 -5.6 8.8 -11.2 19.2 -27.9 33.8 -52.8 46.2 -4.8 2.4 -19.9 6.9 -27.6 8.3 -10.5 1.9 -37.7 2.6 -48.5 1.3z m37 -52.4 c11.5 -3 20.3 -8.2 29.6 -17.4 12.8 -12.7 18.9 -26.1 23.5 -51.6 2.3 -12.6 2.6 -55.4 0.6 -68 -2.2 -13.6 -6.1 -27.7 -9.7 -35.2 -1.9 -4 -3.1 -7.3 -2.7 -7.3 0.4 0 0.2 -0.4 -0.3 -0.8 -0.6 -0.4 -2.3 -2.6 -3.8 -4.9 -4.4 -6.4 -14.5 -15.6 -21.8 -19.6 -13.2 -7.4 -34.2 -10 -50.3 -6.3 -19.5 4.6 -37.7 20.8 -46.2 41.2 -2.3 5.4 -6.3 21.1 -7.5 28.9 -4.3 29.5 -2 72.3 5 92.6 6.5 19 18.7 34.4 33 41.7 7.4 3.8 14.9 6.6 20.1 7.5 6.6 1.1 25 0.6 30.5 -0.8z"/>
  <path d="M1194 460.3 c1.5 -4.9 4.6 -14.2 6.8 -20.8 4.8 -14.3 23.5 -71.7 23.8 -72.7 0.1 -0.5 0.3 -1 0.4 -1.3 0.1 -0.3 0.4 -0.9 0.5 -1.5 0.1 -0.5 0.4 -1.2 0.5 -1.5 0.1 -0.3 0.4 -0.9 0.5 -1.5 0.1 -0.5 0.3 -1.1 0.5 -1.2 0.1 -0.2 0.3 -1 0.5 -1.9 0.3 -1.7 14.5 -45.9 26 -80.9 15.5 -47.2 27.7 -84.6 28 -86 0.2 -0.8 2.2 -7.2 4.5 -14.2 l4.1 -12.8 31.3 0 31.3 0 8.3 25.2 c4.5 13.8 8.3 25.8 8.5 26.7 0.2 0.9 3.9 12.4 8.3 25.6 4.4 13.2 13.2 40.2 19.7 60 6.4 19.8 14.6 44.9 18.2 55.8 3.6 10.9 6.6 20.5 6.8 21.5 0.2 0.9 0.4 1.8 0.5 2 0.2 0.1 0.4 0.7 0.5 1.2 0.1 0.6 0.4 1.2 0.5 1.5 0.1 0.3 0.3 0.8 0.4 1.3 0.1 0.4 5.7 17.6 12.5 38.2 6.7 20.6 12.9 39.4 13.6 41.8 l1.4 4.2 -28.5 0 c-21.9 0 -28.5 -0.3 -28.8 -1.2 -0.2 -0.7 -5.1 -15.9 -10.9 -33.8 -5.8 -17.9 -10.9 -33.5 -11.2 -34.7 l-0.6 -2.3 -50.2 0 -50.2 0.1 -4.2 13.2 c-2.4 7.3 -6.5 20 -9.1 28.2 -2.7 8.3 -5.9 18.5 -7.2 22.8 l-2.3 7.7 -28.7 0 -28.8 0 2.8 -8.7z m163 -107.3 c0 -0.5 -2.3 -7.6 -5 -15.7 -2.8 -8.1 -4.9 -14.8 -4.8 -14.9 0.2 0 -5.3 -17.2 -12.2 -38.2 -7.6 -23.1 -13 -38.2 -13.7 -38.2 -0.7 0 -1.3 0.5 -1.3 1 0 0.6 0 1.2 0 1.5 0 0.3 -4.3 12.9 -9.5 28 -5.1 15.1 -9.2 27.5 -9 27.5 0.3 0 -3.1 10.4 -7.5 23.2 -4.4 12.8 -8 24 -8 25 0 1.7 2.1 1.8 35.5 1.8 22.1 0 35.5 -0.4 35.5 -1z"/>
  <path d="M1786 316.5 l0 -152.5 102 0 102 0 0 25.5 0 25.5 -72.7 0.2 -72.8 0.3 0 34.5 0 34.5 44.2 0.3 44.2 0.2 0.3 21.5 0.3 21.5 -44.5 0.2 -44.5 0.3 -0.3 44.8 -0.2 44.7 73 0 73 0 0 25.5 0 25.5 -102 0 -102 0 0 -152.5z"/>
  <path d="M2024 449 l0 -19.9 6.8 -9.8 c3.7 -5.4 9.4 -13.7 12.7 -18.5 3.2 -4.9 6.2 -8.8 6.7 -8.8 0.4 0 0.8 -0.7 0.8 -1.5 0 -0.8 0.5 -1.5 1 -1.5 0.6 0 1 -0.7 1 -1.5 0 -0.8 0.5 -1.5 1 -1.5 0.6 0 1 -0.5 1 -1.2 0 -0.6 0.7 -1.8 1.5 -2.7 1.6 -1.7 10.9 -15 22.9 -32.8 3.8 -5.7 7.3 -10.3 7.7 -10.3 0.5 0 0.9 -0.7 0.9 -1.5 0 -0.8 0.5 -1.5 1 -1.5 0.6 0 1 -0.7 1 -1.5 0 -0.8 0.5 -1.5 1 -1.5 0.6 0 1 -0.7 1 -1.5 0 -0.8 0.5 -1.5 1 -1.5 0.6 0 1 -0.7 1 -1.5 0 -0.7 0.6 -1.8 1.3 -2.2 0.6 -0.4 3.2 -3.7 5.6 -7.3 17.9 -26.5 24.5 -36 25.3 -36 0.4 0 0.8 -0.7 0.8 -1.5 0 -0.8 0.5 -1.5 1 -1.5 0.6 0 1 -0.6 1 -1.3 0 -1.4 5.9 -10 7.2 -10.5 0.5 -0.2 0.8 -1 0.8 -1.8 0 -0.8 0.5 -1.4 1 -1.4 0.6 0 1 -0.6 1 -1.4 0 -0.8 0.7 -1.6 1.5 -2 0.8 -0.3 1.5 -1.2 1.5 -2.1 0 -0.8 0.5 -1.5 1 -1.5 0.6 0 1 -0.7 1 -1.5 0 -0.8 0.5 -1.5 1 -1.5 0.6 0 1 -0.6 1 -1.4 0 -0.8 0.4 -1.6 0.8 -1.8 0.5 -0.1 3.8 -4.6 7.4 -9.8 3.5 -5.2 9 -13.3 12.2 -17.9 3.2 -4.8 5.3 -8.8 4.8 -9.3 -0.4 -0.4 -31.9 -0.7 -70.5 -0.6 l-69.7 0.3 0 -25.2 0 -25.3 108 0 108 0 0 22.8 0 22.9 -3.2 4.4 c-1.7 2.4 -3.5 4.6 -4 4.7 -0.4 0.2 -0.8 1 -0.8 1.8 0 0.8 -0.4 1.4 -1 1.4 -0.5 0 -1 0.7 -1 1.5 0 0.8 -0.4 1.5 -1 1.5 -0.5 0 -1 0.7 -1 1.5 0 0.7 -0.8 1.9 -1.7 2.4 -1 0.6 -1.4 1.1 -0.9 1.1 0.5 0 0 1 -1.1 2.2 -1.2 1.3 -8.9 12.4 -17.3 24.8 -8.4 12.4 -15.9 23 -16.7 23.7 -0.8 0.6 -1.4 1.5 -1.4 2 0.1 0.4 -1.5 2.9 -3.4 5.4 -1.9 2.5 -3.5 5.1 -3.5 5.7 0 0.5 -0.7 1.2 -1.5 1.6 -0.8 0.3 -1.5 1.2 -1.5 2.1 0 0.8 -0.4 1.5 -1 1.5 -0.5 0 -1 0.6 -1 1.4 0 0.8 -0.4 1.6 -0.8 1.8 -0.5 0.2 -5.7 7.5 -11.7 16.3 -5.9 8.8 -11.5 16.6 -12.3 17.3 -0.9 0.6 -1.3 1.2 -0.9 1.2 0.4 0 -0.9 2.5 -2.9 5.5 -2 3 -4.1 5.5 -4.5 5.5 -0.5 0 -0.9 0.7 -0.9 1.5 0 0.8 -0.4 1.5 -1 1.5 -0.5 0 -1 0.7 -1 1.5 0 0.8 -0.4 1.5 -1 1.5 -0.5 0 -1 0.7 -1 1.5 0 0.8 -0.4 1.5 -1 1.5 -0.5 0 -1 0.6 -1 1.4 0 0.8 -0.4 1.6 -0.9 1.8 -0.5 0.2 -6.8 9.1 -14 19.8 -7.2 10.7 -14 20.5 -15.1 21.7 -1.1 1.3 -2 2.8 -2 3.3 0 0.6 -0.4 1 -1 1 -0.5 0 -1 0.7 -1 1.5 0 0.8 -0.4 1.5 -1 1.5 -0.5 0 -1 0.7 -1 1.5 0 0.8 -0.4 1.5 -0.9 1.5 -0.5 0 -1.1 0.8 -1.5 1.8 -0.3 0.9 -0.9 2.3 -1.2 3 -0.4 0.9 14.5 1.2 72.8 1.2 l73.3 0 0 25.5 0 25.5 -113.2 0 -113.3 0 0 -20z"/>
  <path d="M2667 466.6 c-0.4 -1.3 -1.4 -4.3 -2 -6.7 -0.6 -2.4 -3.3 -11.4 -6 -19.9 -8.6 -27.5 -12.1 -38.7 -12.5 -41.1 -0.3 -1.3 -0.9 -3.5 -1.4 -4.9 -0.5 -1.4 -2.8 -8.6 -5.1 -16 -2.2 -7.4 -4.5 -14.4 -5 -15.6 -0.7 -1.7 -4.8 -15.9 -5.5 -18.9 -0.1 -0.5 -0.5 -1.7 -0.8 -2.5 -0.3 -0.8 -1.7 -5.5 -3.2 -10.5 -1.4 -4.9 -4.3 -14.4 -6.5 -21 -2.1 -6.6 -5.3 -16.9 -7 -23 -1.8 -6 -5.6 -18.6 -8.5 -28 -2.9 -9.3 -6.7 -21.7 -8.4 -27.5 -3.4 -11.5 -5.3 -18 -10.5 -34.5 -7 -22.1 -9.6 -30.8 -9.6 -31.7 0 -0.4 12.4 -0.7 28.1 -0.6 l28.1 0.3 1.9 6 c2.9 9.2 8.1 26.8 8.5 28.9 0.2 1 1 3.7 1.8 6 2.1 5.9 8.4 26.3 17.2 55.6 4.2 14 10.8 35.9 14.6 48.5 3.8 12.7 7.3 24.4 7.8 26 4.9 17 11.9 38 12.8 38.3 1.3 0.4 2.9 -2.4 4.1 -7.4 1.1 -4.9 10 -34.1 15.1 -49.9 2.1 -6.6 6.6 -21 9.9 -32 13 -43.6 20.7 -68.7 28.5 -93 1.3 -3.8 3.6 -11.6 5.2 -17.2 l2.9 -10.3 27.7 0 c16 0 27.8 0.4 27.8 0.9 0 0.5 -1.3 5.1 -3 10.3 -3.6 11.3 -4.2 13.1 -13.1 42.8 -4 12.9 -10.4 34.3 -14.4 47.5 -4 13.2 -10.3 33.9 -13.9 46 -9.6 31.9 -17.6 57.6 -20.2 64.7 -0.8 2.1 -1.6 5 -1.9 6.6 -0.2 1.5 -1.8 7.3 -3.5 12.7 -1.7 5.5 -5.3 17 -8 25.5 -4.6 14.9 -7.1 23.3 -12 40.3 l-2.3 7.7 -28.4 0 -28.3 0 -1 -2.4z"/>
 </g>
 <g fill="#7755a5">
  <path d="M481.8 953 c-3.7 -1 -9.5 -3.2 -12.8 -4.9 -14.1 -7.3 -36 -21.2 -36.8 -23.3 -0.2 -0.4 -1 -0.8 -1.8 -0.8 -0.8 0 -1.4 -0.4 -1.4 -1 0 -0.5 -0.7 -1 -1.5 -1 -0.9 0 -1.8 -0.7 -2.1 -1.5 -0.4 -0.8 -1.2 -1.5 -1.9 -1.5 -0.7 0 -1.5 -0.3 -1.7 -0.8 -0.1 -0.4 -5 -4.1 -10.8 -8.1 -5.8 -4.1 -10.7 -7.5 -10.8 -7.7 -0.2 -0.1 1.7 -7.6 4.3 -16.6 2.6 -9 5.7 -20 6.9 -24.5 l2.1 -8.3 72.6 0 72.5 0 3.3 11.8 c5.5 19.4 12.1 44.5 11.9 44.7 -0.2 0.1 -10.4 6.9 -22.8 15.1 -12.4 8.2 -22.6 15.2 -22.8 15.6 -0.2 0.4 -1 0.8 -1.7 0.8 -0.8 0 -2 0.6 -2.8 1.4 -4.3 4.4 -26.7 12.8 -32.9 12.5 -1.3 -0.1 -5.3 -0.9 -9 -1.9z"/>
  <path d="M682.2 808.3 c-4.5 -14.1 -6.7 -21.7 -7.7 -26.3 -0.2 -0.8 -3.3 -10.9 -7 -22.5 -3.6 -11.5 -8.2 -26.6 -10.1 -33.5 -2 -6.9 -4.9 -16.5 -6.5 -21.4 -1.6 -4.9 -2.9 -9.3 -2.9 -9.7 0 -0.5 4.9 -0.9 10.9 -0.9 22.1 0 44.6 -3.7 67.9 -11.2 17.5 -5.6 42.8 -15.2 54.2 -20.5 5.2 -2.5 12.4 -5.6 15.9 -7 3.5 -1.3 11.2 -4.7 17 -7.5 12.7 -6.1 25.9 -11.8 28.5 -12.4 1 -0.2 2.3 -0.7 3 -1.2 0.6 -0.5 2.2 -1.2 3.6 -1.5 2.4 -0.6 2.4 -0.5 0.6 0.8 -1.1 0.8 -1.6 1.5 -1.1 1.5 0.4 0 0.1 0.8 -0.7 1.8 -0.9 0.9 -6.7 9.4 -13 18.7 -14.9 22.1 -18 26.5 -19 26.5 -0.4 0 -0.8 0.7 -0.8 1.5 0 0.7 -0.8 1.9 -1.7 2.4 -1 0.6 -1.4 1.1 -1 1.1 1 0 -5.1 8.1 -7 9.3 -0.7 0.4 -1.3 1.4 -1.3 2.1 0 0.8 -0.7 1.6 -1.5 2 -0.8 0.3 -1.5 1.2 -1.5 2 0 0.9 -0.9 2 -2 2.6 -1.1 0.6 -2 1.5 -2 2 0 0.6 -0.8 1.8 -1.7 2.8 -1 1 -7.3 8.5 -13.9 16.8 -22.7 27.9 -62.1 69.2 -87.1 91.2 l-7.1 6.2 -5 -15.7z"/>
  <path d="M271.9 794.3 c-20.5 -20.9 -38.3 -41.1 -51.5 -58.3 -3.2 -4.1 -6.4 -7.9 -7.1 -8.3 -0.7 -0.4 -1.3 -1.3 -1.3 -2 0 -0.7 -0.9 -1.8 -2 -2.5 -1.1 -0.7 -2 -1.9 -2 -2.7 0 -0.8 -0.4 -1.5 -1 -1.5 -0.5 0 -1 -0.4 -1 -0.9 0 -0.6 -1.1 -2.2 -2.4 -3.6 -2.7 -2.9 -25.4 -36.5 -27.6 -40.7 -0.7 -1.6 -1.7 -2.8 -2.1 -2.8 -0.4 0 -1 -1.1 -1.3 -2.5 -0.4 -1.4 -1.1 -2.5 -1.6 -2.5 -0.6 0 -1 -0.6 -1 -1.4 0 -0.8 -0.4 -1.6 -0.8 -1.8 -0.9 -0.3 -12.2 -19.1 -12.2 -20.1 0 -0.3 -3.2 -6.3 -7.2 -13.4 -3.9 -7 -10.2 -19.3 -13.9 -27.3 -3.7 -8 -8.1 -17.2 -9.7 -20.5 -1.6 -3.3 -3.7 -8.1 -4.5 -10.5 -1.9 -5.7 -5.3 -14.1 -7.6 -19.4 -2.1 -4.5 -11.1 -29.2 -11.1 -30.2 0 -0.4 -2.3 -7.7 -5.1 -16.3 -4.3 -13.4 -11.8 -40.2 -13.3 -48.1 -0.3 -1.4 -0.7 -3.4 -1 -4.5 -5.9 -23.7 -10.2 -51.5 -11.3 -71.7 -0.3 -7.1 -1 -12.8 -1.5 -12.8 -0.4 0 -0.8 -6.7 -0.8 -15 0 -8.2 0.4 -15 0.8 -15 0.5 0 1.2 -6.2 1.5 -13.7 1.1 -21.9 4.5 -47.7 9.8 -73.8 5 -24.6 6.5 -30.2 12.4 -47.5 3.1 -9.1 6.2 -18 6.8 -19.8 0.5 -1.7 1.4 -3.2 1.9 -3.2 0.5 0 0.7 -0.4 0.4 -0.8 -0.5 -0.8 9.7 -21.9 11.4 -23.6 1.9 -1.9 2.8 4.4 3.8 26.9 1.3 24.8 3.2 38 8.2 56.9 3.1 11.7 3.5 12.8 5.8 17.3 0.7 1.3 1.2 2.8 1.2 3.4 0 0.7 3.1 6.5 7 12.9 16.1 26.8 33.5 41.4 68 56.7 4.6 2.1 22.2 8.1 25.6 8.7 1 0.2 4.8 1.1 8.4 1.9 7.9 1.9 34.4 6 53.5 8.4 20.5 2.6 86.1 2.6 109.5 0 24.7 -2.7 55.8 -7.3 75.2 -11.2 16.3 -3.2 72.7 -17.1 86.8 -21.4 49.5 -15 110.6 -34.9 118.5 -38.5 1.7 -0.8 10.2 -4.2 19 -7.6 8.8 -3.5 20.1 -8.1 25 -10.4 13.6 -6.2 49.3 -23.9 55.2 -27.4 2.8 -1.7 5.4 -2.8 5.7 -2.5 0.3 0.4 0.6 0.2 0.6 -0.4 0 -0.6 1.5 -1.6 3.3 -2.4 1.7 -0.7 3.4 -1.6 3.7 -1.9 0.4 -0.5 10.4 -6.2 23 -13.3 5.8 -3.2 10.5 -6.1 11 -6.7 0.3 -0.4 7.9 -5.1 17 -10.5 9.1 -5.4 20.2 -12.2 24.8 -15.2 4.5 -2.9 8.7 -5.3 9.2 -5.3 0.6 0 1 -0.4 1 -1 0 -0.5 0.7 -1 1.5 -1 0.8 0 1.5 -0.3 1.5 -0.8 0 -0.4 2.5 -2.2 5.6 -4.1 3 -1.8 10.8 -7.8 17.2 -13.3 6.4 -5.5 13.5 -10.9 15.6 -12 3.8 -1.9 4.2 -2 7 -0.4 8.1 4.3 9.4 11.3 7.7 39.6 -1 16.2 -1.6 22 -3.6 37 -1.5 10.9 -8 35.7 -11.9 45.8 -1.4 3.4 -2.5 6.4 -2.5 6.5 0 6.1 -26.2 55.9 -30.3 57.5 -0.4 0.2 -0.8 1 -0.8 1.8 0 0.8 -0.7 1.7 -1.5 2 -0.8 0.4 -1.5 1.3 -1.5 2 0 0.8 -0.7 1.7 -1.5 2 -0.8 0.4 -1.3 0.9 -1 1.4 0.2 0.4 -1.6 2.8 -4 5.4 -2.5 2.5 -4.5 5 -4.5 5.5 0 0.5 -2 2.5 -4.5 4.5 -2.5 2.1 -4.5 4.1 -4.5 4.6 0 1.2 -9.8 11 -11 11 -0.5 0 -2.2 1.6 -3.7 3.5 -3.2 4.1 -14.5 13.5 -16.2 13.5 -0.6 0 -1.1 0.4 -1.1 0.9 0 0.5 -3.3 3.3 -7.2 6.2 -9.4 6.8 -44.8 28.9 -46.4 28.9 -0.7 0 -1.4 0.4 -1.6 0.9 -0.4 1.1 -25.3 14.7 -29.6 16.2 -1.8 0.6 -3.2 1.4 -3.2 1.8 0 0.4 -7.3 4.2 -16.2 8.5 -9 4.3 -24.6 12 -34.8 17.1 -10.2 5.2 -18.9 9.4 -19.3 9.3 -0.4 0 -2.1 0.5 -3.7 1.2 -3.8 1.6 -4.1 5 -0.5 5 4 0 28 -4.9 42.5 -8.6 7.4 -2 14.2 -3.7 15.1 -3.9 6.8 -1.4 40 -14.3 57.4 -22.3 10.4 -4.7 45.8 -23.1 46.5 -24.1 0.3 -0.4 1.7 -1.4 3.1 -2.2 1.5 -0.8 5.3 -2.8 8.5 -4.6 3.3 -1.7 11.5 -6.6 18.4 -11 6.9 -4.3 13.8 -8.4 15.3 -9.2 1.5 -0.8 2.7 -1.8 2.7 -2.3 0 -0.4 0.7 -0.8 1.5 -0.8 0.8 0 1.5 -0.4 1.5 -0.9 0 -0.5 1 -1.3 2.3 -1.7 1.2 -0.4 2.4 -1 2.7 -1.4 0.3 -0.4 7.2 -5.1 15.3 -10.4 9.5 -6.1 14.7 -9 14.3 -7.9 -0.2 1 -1.2 5.9 -2.1 10.8 -1.7 9.5 -8.6 36.3 -12.9 50.5 -1.5 4.7 -2.9 9.7 -3.1 11.2 -0.9 4.9 -12.2 35.3 -15.6 42.1 -0.5 0.9 -1.6 3.9 -2.5 6.5 -1.4 4 -10.5 22.2 -20.7 41.2 -5 9.3 -19 31 -21.9 33.8 -1.5 1.5 -2.8 3.2 -2.8 3.8 0 0.7 -0.7 1.4 -1.5 1.8 -0.8 0.3 -1.5 1.2 -1.5 2 0 0.9 -0.9 2 -2 2.6 -1.1 0.6 -2 1.5 -2 2.1 0 0.5 -2.4 3.4 -5.2 6.5 -2.9 3 -5.7 6.3 -6.3 7.3 -1.2 2.2 -19.9 19.9 -28.8 27.2 -3.4 2.9 -6.6 5.8 -7 6.5 -0.4 0.8 -1.4 1.4 -2.1 1.4 -0.8 0 -1.6 0.7 -2 1.5 -0.3 0.8 -1.2 1.5 -2.1 1.5 -0.8 0 -1.5 0.4 -1.5 0.9 0 0.5 -3.7 3.3 -8.2 6.3 -28.5 19 -55.1 31.9 -86.7 42.4 -16.8 5.5 -36 10.9 -36.5 10.3 -0.8 -0.8 -7.6 -23.2 -7.6 -24.8 0 -1 -0.3 -2.1 -0.7 -2.5 -0.4 -0.3 -0.8 -1.5 -1 -2.5 -0.1 -1 -2 -7.1 -4.1 -13.7 -4 -11.9 -12 -37.5 -14.7 -46.9 -2.1 -6.9 -14.2 -44.7 -29.2 -90.5 -6.9 -21.2 -14.1 -41.6 -15.9 -45.5 -3.2 -6.6 -9.3 -14.5 -11.4 -14.5 -0.5 0 -1.3 -0.6 -1.7 -1.3 -1.2 -2 -8.9 -5.6 -15.6 -7.3 -8.1 -2.1 -83.6 -3.2 -103.4 -1.5 -12.9 1 -26.3 4.5 -27.1 7.1 -0.2 0.5 -0.8 1 -1.3 1 -1.9 0 -10.8 9.8 -13.1 14.5 -2.8 5.6 -7.5 18.3 -10.7 29 -1.1 3.9 -6.3 20.1 -11.6 36 -13.4 41.2 -24.9 77.3 -28.4 89.6 -1.7 5.8 -5.6 18.2 -8.6 27.5 -3.1 9.3 -7.6 23.9 -10.1 32.4 -2.5 8.5 -5.8 19.6 -7.4 24.5 -6.4 20 -8.2 26.1 -8.6 28.1 -0.5 2.5 -5 18 -9.9 33.4 -5.2 16.7 -9 29.3 -11.5 39 -1.2 4.7 -2.5 9.1 -2.9 9.8 -0.5 0.8 -6.5 -4.6 -18.2 -16.5z"/>
  <path d="M437 749.3 c0 -1.2 4.3 -18.3 8.4 -33.3 2.1 -7.4 6.1 -23.2 9.1 -35 3 -11.8 7.7 -29.8 10.5 -40 2.9 -10.2 6.4 -23.4 8 -29.5 1.5 -6 4.3 -16.3 6.1 -22.7 l3.4 -11.8 3.8 0 c2 0 3.7 0.1 3.7 0.3 0 0.8 13.4 52.4 16.4 63.2 2 7.2 6.7 24.9 10.5 39.5 3.8 14.6 8.5 32.3 10.5 39.4 3.3 11.8 6.1 22.8 7.2 28.4 l0.4 2.2 -49 0 c-26.9 0 -49 -0.3 -49 -0.7z"/>
  <path d="M303.5 328.4 c-14.9 -1.5 -30.7 -4 -41 -6.6 -12.9 -3.1 -45.9 -15.7 -49.5 -18.8 -1.2 -1.1 -3.2 -2.2 -4.4 -2.6 -1.1 -0.4 -2.3 -0.9 -2.6 -1.3 -0.3 -0.3 -4.5 -3.3 -9.5 -6.6 -11.8 -7.8 -31.4 -27.3 -38.2 -38 -2.9 -4.4 -5.5 -8.5 -6 -9 -0.4 -0.6 -2.9 -5.3 -5.5 -10.5 -4.2 -8.6 -5.8 -12.4 -6.4 -15.6 -0.1 -0.6 -1.3 -4.8 -2.7 -9.5 -5 -16.4 -6.1 -24.9 -5.9 -45.2 0.2 -18.7 0.2 -18.7 3.4 -26 3.9 -8.7 9.1 -17.9 11.3 -19.7 0.8 -0.7 1.5 -1.9 1.5 -2.6 0 -0.8 0.5 -1.4 1 -1.4 0.6 0 1 -0.7 1 -1.5 0 -0.9 0.7 -1.8 1.5 -2.1 0.8 -0.4 1.5 -1.1 1.5 -1.6 0 -2 33 -33.8 35.1 -33.8 0.4 0 0.9 -0.7 1.3 -1.5 0.3 -0.8 1.2 -1.5 2.1 -1.5 0.8 0 1.5 -0.4 1.5 -0.9 0 -1.6 28.6 -19.6 41.6 -26.2 15.2 -7.6 34 -14.1 47.5 -16.4 5.2 -0.9 11.7 -2 14.4 -2.6 11.5 -2.4 49.6 0 65.5 4 13.8 3.6 35.3 12.8 45.9 19.6 12.4 8 15.2 8.9 26.6 8.5 5.5 -0.3 21.5 -0.4 35.5 -0.4 22.7 0 26.5 0.2 34.7 2.2 13 3.1 19.4 5.7 27.8 11.3 14.6 9.8 22.8 21.8 28.3 41.7 2.4 8.7 2.6 11.4 2.7 26.2 0 9.1 -0.4 17.8 -0.8 19.3 l-0.8 2.9 -4.2 -3.9 c-8.5 -7.8 -17.3 -11.3 -28.7 -11.3 -6.1 0 -22.1 3.2 -24.5 4.9 -0.5 0.4 -3.2 1.6 -6 2.6 -13.6 4.9 -32.4 16.5 -41.4 25.6 -1.6 1.6 -3.4 2.9 -3.9 2.9 -0.5 0 -2.2 1.6 -3.6 3.5 -1.5 1.9 -3.3 3.5 -4.1 3.5 -0.8 0 -1.8 0.6 -2.2 1.4 -0.4 0.8 -7.2 8 -15 16 -7.9 8 -14.3 15.2 -14.3 16 0 0.8 -0.7 1.6 -1.5 2 -0.8 0.3 -1.5 1.2 -1.5 2 0 0.7 -0.6 1.6 -1.2 1.9 -0.7 0.2 -2.4 2.4 -3.7 4.8 -8.1 14.6 -12.1 22.4 -12.1 23.4 0 0.6 -0.4 1.5 -0.9 2.1 -1.2 1.3 -4.7 12.4 -6.6 20.9 -0.9 4.1 -1.8 14.4 -2.2 24.7 l-0.6 17.6 -2.4 0.7 c-10.2 2.5 -32 4.6 -51.8 4.9 -12.1 0.2 -23.8 0.2 -26 0z"/>
 </g>
</svg>